<svg xmlns="http://www.w3.org/2000/svg" xmlns:xlink="http://www.w3.org/1999/xlink" width="1920" zoomAndPan="magnify" viewBox="0 0 1440 809.999993" height="1080" preserveAspectRatio="xMidYMid meet" version="1.0"><defs><clipPath id="667c01b854"><path d="M 94 507 L 179 507 L 179 612 L 94 612 Z M 94 507 " clip-rule="nonzero"/></clipPath><clipPath id="2a16673987"><path d="M -208.234375 547.578125 L 164.925781 497.535156 L 207.992188 818.660156 L -165.167969 868.703125 Z M -208.234375 547.578125 " clip-rule="nonzero"/></clipPath><clipPath id="dd09c9e910"><path d="M -38.75 524.851562 L 164.925781 497.535156 L 207.992188 818.660156 L 4.316406 845.972656 Z M -38.75 524.851562 " clip-rule="nonzero"/></clipPath><clipPath id="30eecdb8c5"><path d="M -208.339844 547.59375 L 164.820312 497.546875 L 207.886719 818.671875 L -165.273438 868.71875 Z M -208.339844 547.59375 " clip-rule="nonzero"/></clipPath><clipPath id="1392f49cfd"><path d="M 0 519 L 162 519 L 162 789 L 0 789 Z M 0 519 " clip-rule="nonzero"/></clipPath><clipPath id="b7f72bbcd9"><path d="M -208.234375 547.578125 L 164.925781 497.535156 L 207.992188 818.660156 L -165.167969 868.703125 Z M -208.234375 547.578125 " clip-rule="nonzero"/></clipPath><clipPath id="4346d9940a"><path d="M -38.75 524.851562 L 164.925781 497.535156 L 207.992188 818.660156 L 4.316406 845.972656 Z M -38.75 524.851562 " clip-rule="nonzero"/></clipPath><clipPath id="bd18d802f0"><path d="M -208.339844 547.59375 L 164.820312 497.546875 L 207.886719 818.671875 L -165.273438 868.71875 Z M -208.339844 547.59375 " clip-rule="nonzero"/></clipPath><clipPath id="3343138110"><path d="M 82 507 L 176 507 L 176 624 L 82 624 Z M 82 507 " clip-rule="nonzero"/></clipPath><clipPath id="336b71fdfa"><path d="M -208.234375 547.578125 L 164.925781 497.535156 L 207.992188 818.660156 L -165.167969 868.703125 Z M -208.234375 547.578125 " clip-rule="nonzero"/></clipPath><clipPath id="5384a263c0"><path d="M -38.75 524.851562 L 164.925781 497.535156 L 207.992188 818.660156 L 4.316406 845.972656 Z M -38.75 524.851562 " clip-rule="nonzero"/></clipPath><clipPath id="ba368a4c11"><path d="M -208.339844 547.59375 L 164.820312 497.546875 L 207.886719 818.671875 L -165.273438 868.71875 Z M -208.339844 547.59375 " clip-rule="nonzero"/></clipPath><clipPath id="3e0712f303"><path d="M 0 624 L 20 624 L 20 757 L 0 757 Z M 0 624 " clip-rule="nonzero"/></clipPath><clipPath id="309f802f9e"><path d="M -208.234375 547.578125 L 164.925781 497.535156 L 207.992188 818.660156 L -165.167969 868.703125 Z M -208.234375 547.578125 " clip-rule="nonzero"/></clipPath><clipPath id="e78e8bd6f7"><path d="M -38.75 524.851562 L 164.925781 497.535156 L 207.992188 818.660156 L 4.316406 845.972656 Z M -38.75 524.851562 " clip-rule="nonzero"/></clipPath><clipPath id="722a3e9b87"><path d="M -208.339844 547.59375 L 164.820312 497.546875 L 207.886719 818.671875 L -165.273438 868.71875 Z M -208.339844 547.59375 " clip-rule="nonzero"/></clipPath><clipPath id="231a38b86c"><path d="M 0 649 L 26 649 L 26 810 L 0 810 Z M 0 649 " clip-rule="nonzero"/></clipPath><clipPath id="9305b454f1"><path d="M -208.234375 547.578125 L 164.925781 497.535156 L 207.992188 818.660156 L -165.167969 868.703125 Z M -208.234375 547.578125 " clip-rule="nonzero"/></clipPath><clipPath id="0557b3e3cb"><path d="M -38.75 524.851562 L 164.925781 497.535156 L 207.992188 818.660156 L 4.316406 845.972656 Z M -38.75 524.851562 " clip-rule="nonzero"/></clipPath><clipPath id="47457a9afe"><path d="M -208.339844 547.59375 L 164.820312 497.546875 L 207.886719 818.671875 L -165.273438 868.71875 Z M -208.339844 547.59375 " clip-rule="nonzero"/></clipPath><clipPath id="80b6da42fb"><path d="M 0 660 L 59 660 L 59 810 L 0 810 Z M 0 660 " clip-rule="nonzero"/></clipPath><clipPath id="4b44827bac"><path d="M -208.234375 547.578125 L 164.925781 497.535156 L 207.992188 818.660156 L -165.167969 868.703125 Z M -208.234375 547.578125 " clip-rule="nonzero"/></clipPath><clipPath id="6c1e4a4a09"><path d="M -38.75 524.851562 L 164.925781 497.535156 L 207.992188 818.660156 L 4.316406 845.972656 Z M -38.75 524.851562 " clip-rule="nonzero"/></clipPath><clipPath id="84a40c801a"><path d="M -208.339844 547.59375 L 164.820312 497.546875 L 207.886719 818.671875 L -165.273438 868.71875 Z M -208.339844 547.59375 " clip-rule="nonzero"/></clipPath><clipPath id="94a82a0ada"><path d="M 0 683 L 85 683 L 85 798 L 0 798 Z M 0 683 " clip-rule="nonzero"/></clipPath><clipPath id="6eb468daf4"><path d="M -208.234375 547.578125 L 164.925781 497.535156 L 207.992188 818.660156 L -165.167969 868.703125 Z M -208.234375 547.578125 " clip-rule="nonzero"/></clipPath><clipPath id="d5877a3284"><path d="M -38.75 524.851562 L 164.925781 497.535156 L 207.992188 818.660156 L 4.316406 845.972656 Z M -38.75 524.851562 " clip-rule="nonzero"/></clipPath><clipPath id="2c405ee9b1"><path d="M -208.339844 547.59375 L 164.820312 497.546875 L 207.886719 818.671875 L -165.273438 868.71875 Z M -208.339844 547.59375 " clip-rule="nonzero"/></clipPath><clipPath id="643a5f655f"><path d="M 0 715 L 100 715 L 100 766 L 0 766 Z M 0 715 " clip-rule="nonzero"/></clipPath><clipPath id="5bafce1a0a"><path d="M -208.234375 547.578125 L 164.925781 497.535156 L 207.992188 818.660156 L -165.167969 868.703125 Z M -208.234375 547.578125 " clip-rule="nonzero"/></clipPath><clipPath id="4f976613ae"><path d="M -38.75 524.851562 L 164.925781 497.535156 L 207.992188 818.660156 L 4.316406 845.972656 Z M -38.75 524.851562 " clip-rule="nonzero"/></clipPath><clipPath id="7fe4503819"><path d="M -208.339844 547.59375 L 164.820312 497.546875 L 207.886719 818.671875 L -165.273438 868.71875 Z M -208.339844 547.59375 " clip-rule="nonzero"/></clipPath><clipPath id="a4aa2f214b"><path d="M 0 726 L 102 726 L 102 755 L 0 755 Z M 0 726 " clip-rule="nonzero"/></clipPath><clipPath id="b561bba58b"><path d="M -208.234375 547.578125 L 164.925781 497.535156 L 207.992188 818.660156 L -165.167969 868.703125 Z M -208.234375 547.578125 " clip-rule="nonzero"/></clipPath><clipPath id="399ef9d890"><path d="M -38.75 524.851562 L 164.925781 497.535156 L 207.992188 818.660156 L 4.316406 845.972656 Z M -38.75 524.851562 " clip-rule="nonzero"/></clipPath><clipPath id="81e3795c56"><path d="M -208.339844 547.59375 L 164.820312 497.546875 L 207.886719 818.671875 L -165.273438 868.71875 Z M -208.339844 547.59375 " clip-rule="nonzero"/></clipPath><clipPath id="20f9d2d572"><path d="M 0 693 L 91 693 L 91 788 L 0 788 Z M 0 693 " clip-rule="nonzero"/></clipPath><clipPath id="e057ccb1f2"><path d="M -208.234375 547.578125 L 164.925781 497.535156 L 207.992188 818.660156 L -165.167969 868.703125 Z M -208.234375 547.578125 " clip-rule="nonzero"/></clipPath><clipPath id="f2159944ab"><path d="M -38.75 524.851562 L 164.925781 497.535156 L 207.992188 818.660156 L 4.316406 845.972656 Z M -38.75 524.851562 " clip-rule="nonzero"/></clipPath><clipPath id="e3ea06c2a6"><path d="M -208.339844 547.59375 L 164.820312 497.546875 L 207.886719 818.671875 L -165.273438 868.71875 Z M -208.339844 547.59375 " clip-rule="nonzero"/></clipPath><clipPath id="6be6cb82eb"><path d="M 0 666 L 69 666 L 69 810 L 0 810 Z M 0 666 " clip-rule="nonzero"/></clipPath><clipPath id="f31c21af99"><path d="M -208.234375 547.578125 L 164.925781 497.535156 L 207.992188 818.660156 L -165.167969 868.703125 Z M -208.234375 547.578125 " clip-rule="nonzero"/></clipPath><clipPath id="a0d9b44d67"><path d="M -38.75 524.851562 L 164.925781 497.535156 L 207.992188 818.660156 L 4.316406 845.972656 Z M -38.75 524.851562 " clip-rule="nonzero"/></clipPath><clipPath id="bfed2a60b2"><path d="M -208.339844 547.59375 L 164.820312 497.546875 L 207.886719 818.671875 L -165.273438 868.71875 Z M -208.339844 547.59375 " clip-rule="nonzero"/></clipPath><clipPath id="e8abe0f130"><path d="M 0 651 L 37 651 L 37 810 L 0 810 Z M 0 651 " clip-rule="nonzero"/></clipPath><clipPath id="d43869afa4"><path d="M -208.234375 547.578125 L 164.925781 497.535156 L 207.992188 818.660156 L -165.167969 868.703125 Z M -208.234375 547.578125 " clip-rule="nonzero"/></clipPath><clipPath id="ccac31fac6"><path d="M -38.75 524.851562 L 164.925781 497.535156 L 207.992188 818.660156 L 4.316406 845.972656 Z M -38.75 524.851562 " clip-rule="nonzero"/></clipPath><clipPath id="389bbbcad8"><path d="M -208.339844 547.59375 L 164.820312 497.546875 L 207.886719 818.671875 L -165.273438 868.71875 Z M -208.339844 547.59375 " clip-rule="nonzero"/></clipPath><clipPath id="3bcdd04b0b"><path d="M 0 636 L 115 636 L 115 810 L 0 810 Z M 0 636 " clip-rule="nonzero"/></clipPath><clipPath id="3cddb1903a"><path d="M -208.234375 547.578125 L 164.925781 497.535156 L 207.992188 818.660156 L -165.167969 868.703125 Z M -208.234375 547.578125 " clip-rule="nonzero"/></clipPath><clipPath id="f3ccda55a6"><path d="M -38.75 524.851562 L 164.925781 497.535156 L 207.992188 818.660156 L 4.316406 845.972656 Z M -38.75 524.851562 " clip-rule="nonzero"/></clipPath><clipPath id="a20c46950d"><path d="M -208.339844 547.59375 L 164.820312 497.546875 L 207.886719 818.671875 L -165.273438 868.71875 Z M -208.339844 547.59375 " clip-rule="nonzero"/></clipPath><clipPath id="a78e59fddf"><path d="M 0 642 L 110 642 L 110 810 L 0 810 Z M 0 642 " clip-rule="nonzero"/></clipPath><clipPath id="4dd895d5d3"><path d="M -208.234375 547.578125 L 164.925781 497.535156 L 207.992188 818.660156 L -165.167969 868.703125 Z M -208.234375 547.578125 " clip-rule="nonzero"/></clipPath><clipPath id="561c313b63"><path d="M -38.75 524.851562 L 164.925781 497.535156 L 207.992188 818.660156 L 4.316406 845.972656 Z M -38.75 524.851562 " clip-rule="nonzero"/></clipPath><clipPath id="922c8f9a2d"><path d="M -208.339844 547.59375 L 164.820312 497.546875 L 207.886719 818.671875 L -165.273438 868.71875 Z M -208.339844 547.59375 " clip-rule="nonzero"/></clipPath><clipPath id="6d40f15e7c"><path d="M 0 724 L 28 724 L 28 757 L 0 757 Z M 0 724 " clip-rule="nonzero"/></clipPath><clipPath id="cb01402475"><path d="M -208.234375 547.578125 L 164.925781 497.535156 L 207.992188 818.660156 L -165.167969 868.703125 Z M -208.234375 547.578125 " clip-rule="nonzero"/></clipPath><clipPath id="c2032694a8"><path d="M -38.75 524.851562 L 164.925781 497.535156 L 207.992188 818.660156 L 4.316406 845.972656 Z M -38.75 524.851562 " clip-rule="nonzero"/></clipPath><clipPath id="5ecd3b1303"><path d="M -208.339844 547.59375 L 164.820312 497.546875 L 207.886719 818.671875 L -165.273438 868.71875 Z M -208.339844 547.59375 " clip-rule="nonzero"/></clipPath><clipPath id="22ffd0e7d3"><path d="M 2 732 L 20 732 L 20 749 L 2 749 Z M 2 732 " clip-rule="nonzero"/></clipPath><clipPath id="a975a093f2"><path d="M -208.234375 547.578125 L 164.925781 497.535156 L 207.992188 818.660156 L -165.167969 868.703125 Z M -208.234375 547.578125 " clip-rule="nonzero"/></clipPath><clipPath id="0e0092fa9a"><path d="M -38.75 524.851562 L 164.925781 497.535156 L 207.992188 818.660156 L 4.316406 845.972656 Z M -38.75 524.851562 " clip-rule="nonzero"/></clipPath><clipPath id="ef5a339870"><path d="M -208.339844 547.59375 L 164.820312 497.546875 L 207.886719 818.671875 L -165.273438 868.71875 Z M -208.339844 547.59375 " clip-rule="nonzero"/></clipPath><clipPath id="eb742fe588"><path d="M 1264 504 L 1352 504 L 1352 606 L 1264 606 Z M 1264 504 " clip-rule="nonzero"/></clipPath><clipPath id="ee92cdee29"><path d="M 1281.570312 491.71875 L 1652.703125 555.070312 L 1598.1875 874.449219 L 1227.054688 811.097656 Z M 1281.570312 491.71875 " clip-rule="nonzero"/></clipPath><clipPath id="cf668eb749"><path d="M 1488.808594 527.09375 L 1281.804688 491.757812 L 1227.285156 811.136719 L 1434.292969 846.472656 Z M 1488.808594 527.09375 " clip-rule="nonzero"/></clipPath><clipPath id="48c05d168f"><path d="M 1653.039062 555.125 L 1281.90625 491.773438 L 1227.386719 811.15625 L 1598.519531 874.507812 Z M 1653.039062 555.125 " clip-rule="nonzero"/></clipPath><clipPath id="4294a6d457"><path d="M 1280 517 L 1440 517 L 1440 791 L 1280 791 Z M 1280 517 " clip-rule="nonzero"/></clipPath><clipPath id="0d7138321b"><path d="M 1281.570312 491.71875 L 1652.703125 555.070312 L 1598.1875 874.449219 L 1227.054688 811.097656 Z M 1281.570312 491.71875 " clip-rule="nonzero"/></clipPath><clipPath id="ed9076755a"><path d="M 1488.808594 527.09375 L 1281.804688 491.757812 L 1227.285156 811.136719 L 1434.292969 846.472656 Z M 1488.808594 527.09375 " clip-rule="nonzero"/></clipPath><clipPath id="37601524ef"><path d="M 1653.039062 555.125 L 1281.90625 491.773438 L 1227.386719 811.15625 L 1598.519531 874.507812 Z M 1653.039062 555.125 " clip-rule="nonzero"/></clipPath><clipPath id="c08fc7a7ff"><path d="M 1267 504 L 1364 504 L 1364 618 L 1267 618 Z M 1267 504 " clip-rule="nonzero"/></clipPath><clipPath id="5208f2b817"><path d="M 1281.570312 491.71875 L 1652.703125 555.070312 L 1598.1875 874.449219 L 1227.054688 811.097656 Z M 1281.570312 491.71875 " clip-rule="nonzero"/></clipPath><clipPath id="cee415fd1d"><path d="M 1488.808594 527.09375 L 1281.804688 491.757812 L 1227.285156 811.136719 L 1434.292969 846.472656 Z M 1488.808594 527.09375 " clip-rule="nonzero"/></clipPath><clipPath id="b8ea0d138d"><path d="M 1653.039062 555.125 L 1281.90625 491.773438 L 1227.386719 811.15625 L 1598.519531 874.507812 Z M 1653.039062 555.125 " clip-rule="nonzero"/></clipPath><clipPath id="dc186bc7ee"><path d="M 1418 627 L 1440 627 L 1440 756 L 1418 756 Z M 1418 627 " clip-rule="nonzero"/></clipPath><clipPath id="8e8660c530"><path d="M 1281.570312 491.71875 L 1652.703125 555.070312 L 1598.1875 874.449219 L 1227.054688 811.097656 Z M 1281.570312 491.71875 " clip-rule="nonzero"/></clipPath><clipPath id="0f56b44598"><path d="M 1488.808594 527.09375 L 1281.804688 491.757812 L 1227.285156 811.136719 L 1434.292969 846.472656 Z M 1488.808594 527.09375 " clip-rule="nonzero"/></clipPath><clipPath id="3c5973d62e"><path d="M 1653.039062 555.125 L 1281.90625 491.773438 L 1227.386719 811.15625 L 1598.519531 874.507812 Z M 1653.039062 555.125 " clip-rule="nonzero"/></clipPath><clipPath id="0efc675498"><path d="M 1409 649 L 1440 649 L 1440 810 L 1409 810 Z M 1409 649 " clip-rule="nonzero"/></clipPath><clipPath id="400aa1457f"><path d="M 1281.570312 491.71875 L 1652.703125 555.070312 L 1598.1875 874.449219 L 1227.054688 811.097656 Z M 1281.570312 491.71875 " clip-rule="nonzero"/></clipPath><clipPath id="3cae672156"><path d="M 1488.808594 527.09375 L 1281.804688 491.757812 L 1227.285156 811.136719 L 1434.292969 846.472656 Z M 1488.808594 527.09375 " clip-rule="nonzero"/></clipPath><clipPath id="1e1d4b3b80"><path d="M 1653.039062 555.125 L 1281.90625 491.773438 L 1227.386719 811.15625 L 1598.519531 874.507812 Z M 1653.039062 555.125 " clip-rule="nonzero"/></clipPath><clipPath id="950f3809e1"><path d="M 1376 661 L 1440 661 L 1440 810 L 1376 810 Z M 1376 661 " clip-rule="nonzero"/></clipPath><clipPath id="236d8b543e"><path d="M 1281.570312 491.71875 L 1652.703125 555.070312 L 1598.1875 874.449219 L 1227.054688 811.097656 Z M 1281.570312 491.71875 " clip-rule="nonzero"/></clipPath><clipPath id="31582405ff"><path d="M 1488.808594 527.09375 L 1281.804688 491.757812 L 1227.285156 811.136719 L 1434.292969 846.472656 Z M 1488.808594 527.09375 " clip-rule="nonzero"/></clipPath><clipPath id="2539ff3e99"><path d="M 1653.039062 555.125 L 1281.90625 491.773438 L 1227.386719 811.15625 L 1598.519531 874.507812 Z M 1653.039062 555.125 " clip-rule="nonzero"/></clipPath><clipPath id="016da0cdfe"><path d="M 1351 685 L 1440 685 L 1440 795 L 1351 795 Z M 1351 685 " clip-rule="nonzero"/></clipPath><clipPath id="f6946383b9"><path d="M 1281.570312 491.71875 L 1652.703125 555.070312 L 1598.1875 874.449219 L 1227.054688 811.097656 Z M 1281.570312 491.71875 " clip-rule="nonzero"/></clipPath><clipPath id="d746a7789f"><path d="M 1488.808594 527.09375 L 1281.804688 491.757812 L 1227.285156 811.136719 L 1434.292969 846.472656 Z M 1488.808594 527.09375 " clip-rule="nonzero"/></clipPath><clipPath id="7036ecfd84"><path d="M 1653.039062 555.125 L 1281.90625 491.773438 L 1227.386719 811.15625 L 1598.519531 874.507812 Z M 1653.039062 555.125 " clip-rule="nonzero"/></clipPath><clipPath id="4882733650"><path d="M 1337 717 L 1440 717 L 1440 763 L 1337 763 Z M 1337 717 " clip-rule="nonzero"/></clipPath><clipPath id="76ce2dae81"><path d="M 1281.570312 491.71875 L 1652.703125 555.070312 L 1598.1875 874.449219 L 1227.054688 811.097656 Z M 1281.570312 491.71875 " clip-rule="nonzero"/></clipPath><clipPath id="66249b5bc0"><path d="M 1488.808594 527.09375 L 1281.804688 491.757812 L 1227.285156 811.136719 L 1434.292969 846.472656 Z M 1488.808594 527.09375 " clip-rule="nonzero"/></clipPath><clipPath id="e6ee979077"><path d="M 1653.039062 555.125 L 1281.90625 491.773438 L 1227.386719 811.15625 L 1598.519531 874.507812 Z M 1653.039062 555.125 " clip-rule="nonzero"/></clipPath><clipPath id="cc1b7ce6e6"><path d="M 1336 722 L 1440 722 L 1440 758 L 1336 758 Z M 1336 722 " clip-rule="nonzero"/></clipPath><clipPath id="05de02fd90"><path d="M 1281.570312 491.71875 L 1652.703125 555.070312 L 1598.1875 874.449219 L 1227.054688 811.097656 Z M 1281.570312 491.71875 " clip-rule="nonzero"/></clipPath><clipPath id="fdae10fbf2"><path d="M 1488.808594 527.09375 L 1281.804688 491.757812 L 1227.285156 811.136719 L 1434.292969 846.472656 Z M 1488.808594 527.09375 " clip-rule="nonzero"/></clipPath><clipPath id="173bf6487f"><path d="M 1653.039062 555.125 L 1281.90625 491.773438 L 1227.386719 811.15625 L 1598.519531 874.507812 Z M 1653.039062 555.125 " clip-rule="nonzero"/></clipPath><clipPath id="4372faf490"><path d="M 1348 689 L 1440 689 L 1440 791 L 1348 791 Z M 1348 689 " clip-rule="nonzero"/></clipPath><clipPath id="867c9d35d3"><path d="M 1281.570312 491.71875 L 1652.703125 555.070312 L 1598.1875 874.449219 L 1227.054688 811.097656 Z M 1281.570312 491.71875 " clip-rule="nonzero"/></clipPath><clipPath id="e046577d8e"><path d="M 1488.808594 527.09375 L 1281.804688 491.757812 L 1227.285156 811.136719 L 1434.292969 846.472656 Z M 1488.808594 527.09375 " clip-rule="nonzero"/></clipPath><clipPath id="9a5f3d05e5"><path d="M 1653.039062 555.125 L 1281.90625 491.773438 L 1227.386719 811.15625 L 1598.519531 874.507812 Z M 1653.039062 555.125 " clip-rule="nonzero"/></clipPath><clipPath id="c6b0a35a8e"><path d="M 1372 664 L 1440 664 L 1440 810 L 1372 810 Z M 1372 664 " clip-rule="nonzero"/></clipPath><clipPath id="315a102a21"><path d="M 1281.570312 491.71875 L 1652.703125 555.070312 L 1598.1875 874.449219 L 1227.054688 811.097656 Z M 1281.570312 491.71875 " clip-rule="nonzero"/></clipPath><clipPath id="864562983b"><path d="M 1488.808594 527.09375 L 1281.804688 491.757812 L 1227.285156 811.136719 L 1434.292969 846.472656 Z M 1488.808594 527.09375 " clip-rule="nonzero"/></clipPath><clipPath id="d15c1f5d6f"><path d="M 1653.039062 555.125 L 1281.90625 491.773438 L 1227.386719 811.15625 L 1598.519531 874.507812 Z M 1653.039062 555.125 " clip-rule="nonzero"/></clipPath><clipPath id="d32403a1cd"><path d="M 1404 650 L 1440 650 L 1440 810 L 1404 810 Z M 1404 650 " clip-rule="nonzero"/></clipPath><clipPath id="90ce5e0dbd"><path d="M 1281.570312 491.71875 L 1652.703125 555.070312 L 1598.1875 874.449219 L 1227.054688 811.097656 Z M 1281.570312 491.71875 " clip-rule="nonzero"/></clipPath><clipPath id="35a35c9bff"><path d="M 1488.808594 527.09375 L 1281.804688 491.757812 L 1227.285156 811.136719 L 1434.292969 846.472656 Z M 1488.808594 527.09375 " clip-rule="nonzero"/></clipPath><clipPath id="1ff5b55f52"><path d="M 1653.039062 555.125 L 1281.90625 491.773438 L 1227.386719 811.15625 L 1598.519531 874.507812 Z M 1653.039062 555.125 " clip-rule="nonzero"/></clipPath><clipPath id="cc5851b01e"><path d="M 1323 636 L 1440 636 L 1440 810 L 1323 810 Z M 1323 636 " clip-rule="nonzero"/></clipPath><clipPath id="dacc71c854"><path d="M 1281.570312 491.71875 L 1652.703125 555.070312 L 1598.1875 874.449219 L 1227.054688 811.097656 Z M 1281.570312 491.71875 " clip-rule="nonzero"/></clipPath><clipPath id="1ffb882fdd"><path d="M 1488.808594 527.09375 L 1281.804688 491.757812 L 1227.285156 811.136719 L 1434.292969 846.472656 Z M 1488.808594 527.09375 " clip-rule="nonzero"/></clipPath><clipPath id="044119b369"><path d="M 1653.039062 555.125 L 1281.90625 491.773438 L 1227.386719 811.15625 L 1598.519531 874.507812 Z M 1653.039062 555.125 " clip-rule="nonzero"/></clipPath><clipPath id="61cf2377da"><path d="M 1328 641 L 1440 641 L 1440 810 L 1328 810 Z M 1328 641 " clip-rule="nonzero"/></clipPath><clipPath id="4f9249ae47"><path d="M 1281.570312 491.71875 L 1652.703125 555.070312 L 1598.1875 874.449219 L 1227.054688 811.097656 Z M 1281.570312 491.71875 " clip-rule="nonzero"/></clipPath><clipPath id="6060ec3a14"><path d="M 1488.808594 527.09375 L 1281.804688 491.757812 L 1227.285156 811.136719 L 1434.292969 846.472656 Z M 1488.808594 527.09375 " clip-rule="nonzero"/></clipPath><clipPath id="f45a96345f"><path d="M 1653.039062 555.125 L 1281.90625 491.773438 L 1227.386719 811.15625 L 1598.519531 874.507812 Z M 1653.039062 555.125 " clip-rule="nonzero"/></clipPath><clipPath id="e76b3380bf"><path d="M 1410 724 L 1440 724 L 1440 756 L 1410 756 Z M 1410 724 " clip-rule="nonzero"/></clipPath><clipPath id="110c28a0bb"><path d="M 1281.570312 491.71875 L 1652.703125 555.070312 L 1598.1875 874.449219 L 1227.054688 811.097656 Z M 1281.570312 491.71875 " clip-rule="nonzero"/></clipPath><clipPath id="84fa650d25"><path d="M 1488.808594 527.09375 L 1281.804688 491.757812 L 1227.285156 811.136719 L 1434.292969 846.472656 Z M 1488.808594 527.09375 " clip-rule="nonzero"/></clipPath><clipPath id="5f28070941"><path d="M 1653.039062 555.125 L 1281.90625 491.773438 L 1227.386719 811.15625 L 1598.519531 874.507812 Z M 1653.039062 555.125 " clip-rule="nonzero"/></clipPath><clipPath id="cede99e003"><path d="M 1418 731 L 1436 731 L 1436 749 L 1418 749 Z M 1418 731 " clip-rule="nonzero"/></clipPath><clipPath id="bf9b482478"><path d="M 1281.570312 491.71875 L 1652.703125 555.070312 L 1598.1875 874.449219 L 1227.054688 811.097656 Z M 1281.570312 491.71875 " clip-rule="nonzero"/></clipPath><clipPath id="606821aeb4"><path d="M 1488.808594 527.09375 L 1281.804688 491.757812 L 1227.285156 811.136719 L 1434.292969 846.472656 Z M 1488.808594 527.09375 " clip-rule="nonzero"/></clipPath><clipPath id="dede5186a2"><path d="M 1653.039062 555.125 L 1281.90625 491.773438 L 1227.386719 811.15625 L 1598.519531 874.507812 Z M 1653.039062 555.125 " clip-rule="nonzero"/></clipPath></defs><g clip-path="url(#667c01b854)"><g clip-path="url(#2a16673987)"><g clip-path="url(#dd09c9e910)"><g clip-path="url(#30eecdb8c5)"><path fill="#6d6e71" d="M 176.507812 607.316406 L 171.855469 610.90625 C 170.015625 612.324219 167.378906 611.980469 165.960938 610.144531 L 95.203125 518.339844 C 93.785156 516.503906 94.125 513.859375 95.964844 512.445312 L 100.617188 508.851562 C 102.457031 507.4375 105.09375 507.777344 106.511719 509.613281 L 177.269531 601.417969 C 178.683594 603.257812 178.34375 605.894531 176.507812 607.316406 " fill-opacity="1" fill-rule="nonzero"/></g></g></g></g><g clip-path="url(#1392f49cfd)"><g clip-path="url(#b7f72bbcd9)"><g clip-path="url(#4346d9940a)"><g clip-path="url(#bd18d802f0)"><path fill="#414042" d="M 36.839844 560.894531 L -96.515625 639.351562 C -137.949219 663.726562 -148.621094 718.9375 -119.265625 757.023438 L -119.265625 757.027344 C -89.90625 795.113281 -33.828125 798.816406 0.265625 764.914062 L 109.992188 655.808594 C 126.050781 642.558594 143.300781 630.828125 161.519531 620.761719 L 83.808594 519.9375 C 69.449219 535.011719 53.726562 548.722656 36.839844 560.894531 " fill-opacity="1" fill-rule="nonzero"/></g></g></g></g><g clip-path="url(#3343138110)"><g clip-path="url(#336b71fdfa)"><g clip-path="url(#5384a263c0)"><g clip-path="url(#ba368a4c11)"><path fill="#58595b" d="M 173.582031 618.105469 L 168.425781 622.089844 C 166.386719 623.660156 163.460938 623.28125 161.890625 621.242188 L 83.4375 519.457031 C 81.867188 517.421875 82.246094 514.492188 84.285156 512.921875 L 89.445312 508.9375 C 91.480469 507.367188 94.40625 507.746094 95.976562 509.78125 L 174.429688 611.566406 C 176 613.605469 175.621094 616.535156 173.582031 618.105469 " fill-opacity="1" fill-rule="nonzero"/></g></g></g></g><g clip-path="url(#3e0712f303)"><g clip-path="url(#309f802f9e)"><g clip-path="url(#e78e8bd6f7)"><g clip-path="url(#722a3e9b87)"><path fill="#6d6e71" d="M 17.160156 755.152344 C 14.960938 756.851562 11.800781 756.445312 10.105469 754.242188 L -83.695312 632.539062 C -85.394531 630.335938 -84.984375 627.175781 -82.785156 625.480469 C -80.585938 623.785156 -77.425781 624.191406 -75.730469 626.394531 L 18.074219 748.097656 C 19.765625 750.296875 19.359375 753.457031 17.160156 755.152344 " fill-opacity="1" fill-rule="nonzero"/></g></g></g></g><g clip-path="url(#231a38b86c)"><g clip-path="url(#9305b454f1)"><g clip-path="url(#0557b3e3cb)"><g clip-path="url(#47457a9afe)"><path fill="#cf7f55" d="M 25.242188 830.578125 L 21.488281 831.082031 L -2.742188 650.394531 L 1.011719 649.890625 L 25.242188 830.578125 " fill-opacity="1" fill-rule="nonzero"/></g></g></g></g><g clip-path="url(#80b6da42fb)"><g clip-path="url(#4b44827bac)"><g clip-path="url(#6c1e4a4a09)"><g clip-path="url(#84a40c801a)"><path fill="#cf7f55" d="M 58.632812 818.367188 L 55.359375 820.269531 L -36.132812 662.605469 L -32.859375 660.703125 L 58.632812 818.367188 " fill-opacity="1" fill-rule="nonzero"/></g></g></g></g><g clip-path="url(#94a82a0ada)"><g clip-path="url(#6eb468daf4)"><g clip-path="url(#d5877a3284)"><g clip-path="url(#2c405ee9b1)"><path fill="#cf7f55" d="M 84.808594 794.300781 L 82.511719 797.3125 L -62.308594 686.671875 L -60.007812 683.660156 L 84.808594 794.300781 " fill-opacity="1" fill-rule="nonzero"/></g></g></g></g><g clip-path="url(#643a5f655f)"><g clip-path="url(#5bafce1a0a)"><g clip-path="url(#4f976613ae)"><g clip-path="url(#7fe4503819)"><path fill="#cf7f55" d="M 99.785156 762.039062 L 98.816406 765.703125 L -77.289062 718.933594 L -76.316406 715.269531 L 99.785156 762.039062 " fill-opacity="1" fill-rule="nonzero"/></g></g></g></g><g clip-path="url(#a4aa2f214b)"><g clip-path="url(#b561bba58b)"><g clip-path="url(#399ef9d890)"><g clip-path="url(#81e3795c56)"><path fill="#cf7f55" d="M 101.285156 726.5 L 101.789062 730.253906 L -78.785156 754.472656 L -79.289062 750.71875 L 101.285156 726.5 " fill-opacity="1" fill-rule="nonzero"/></g></g></g></g><g clip-path="url(#20f9d2d572)"><g clip-path="url(#e057ccb1f2)"><g clip-path="url(#f2159944ab)"><g clip-path="url(#e3ea06c2a6)"><path fill="#cf7f55" d="M 89.078125 693.085938 L 90.976562 696.367188 L -66.578125 787.886719 L -68.480469 784.605469 L 89.078125 693.085938 " fill-opacity="1" fill-rule="nonzero"/></g></g></g></g><g clip-path="url(#6be6cb82eb)"><g clip-path="url(#f31c21af99)"><g clip-path="url(#a0d9b44d67)"><g clip-path="url(#bfed2a60b2)"><path fill="#cf7f55" d="M 65.019531 666.894531 L 68.03125 669.191406 L -42.519531 814.082031 L -45.53125 811.78125 L 65.019531 666.894531 " fill-opacity="1" fill-rule="nonzero"/></g></g></g></g><g clip-path="url(#e8abe0f130)"><g clip-path="url(#d43869afa4)"><g clip-path="url(#ccac31fac6)"><g clip-path="url(#389bbbcad8)"><path fill="#cf7f55" d="M 32.777344 651.898438 L 36.4375 652.875 L -10.277344 829.074219 L -13.9375 828.101562 L 32.777344 651.898438 " fill-opacity="1" fill-rule="nonzero"/></g></g></g></g><g clip-path="url(#3bcdd04b0b)"><g clip-path="url(#3cddb1903a)"><g clip-path="url(#f3ccda55a6)"><g clip-path="url(#a20c46950d)"><path fill="#e48c5d" d="M 24.332031 838.035156 C -29.507812 845.257812 -79.011719 807.4375 -86.238281 753.5625 C -93.464844 699.6875 -55.675781 650.160156 -1.832031 642.9375 C 52.007812 635.71875 101.515625 673.539062 108.738281 727.414062 C 115.964844 781.285156 78.171875 830.8125 24.332031 838.035156 Z M -2.527344 637.765625 C -59.222656 645.367188 -99.015625 697.523438 -91.40625 754.257812 C -83.796875 810.988281 -31.667969 850.808594 25.027344 843.207031 C 81.722656 835.601562 121.515625 783.453125 113.90625 726.71875 C 106.300781 669.988281 54.171875 630.160156 -2.527344 637.765625 " fill-opacity="1" fill-rule="nonzero"/></g></g></g></g><g clip-path="url(#a78e59fddf)"><g clip-path="url(#4dd895d5d3)"><g clip-path="url(#561c313b63)"><g clip-path="url(#922c8f9a2d)"><path fill="#b36e49" d="M 21.855469 819.558594 C -21.789062 825.414062 -61.917969 794.753906 -67.773438 751.085938 C -73.632812 707.414062 -42.996094 667.265625 0.644531 661.414062 C 44.289062 655.5625 84.417969 686.214844 90.273438 729.890625 C 96.132812 773.558594 65.5 813.707031 21.855469 819.558594 Z M -1.832031 642.9375 C -55.675781 650.160156 -93.464844 699.6875 -86.238281 753.5625 C -79.011719 807.4375 -29.507812 845.257812 24.332031 838.035156 C 78.171875 830.8125 115.964844 781.285156 108.738281 727.414062 C 101.515625 673.539062 52.007812 635.71875 -1.832031 642.9375 " fill-opacity="1" fill-rule="nonzero"/></g></g></g></g><g clip-path="url(#6d40f15e7c)"><g clip-path="url(#cb01402475)"><g clip-path="url(#c2032694a8)"><g clip-path="url(#5ecd3b1303)"><path fill="#b36e49" d="M 26.882812 738.390625 C 28.042969 747.027344 21.984375 754.96875 13.347656 756.128906 C 4.714844 757.285156 -3.222656 751.222656 -4.382812 742.585938 C -5.539062 733.945312 0.519531 726.003906 9.152344 724.84375 C 17.789062 723.6875 25.722656 729.75 26.882812 738.390625 " fill-opacity="1" fill-rule="nonzero"/></g></g></g></g><g clip-path="url(#22ffd0e7d3)"><g clip-path="url(#a975a093f2)"><g clip-path="url(#0e0092fa9a)"><g clip-path="url(#ef5a339870)"><path fill="#8d573a" d="M 19.5 739.382812 C 20.109375 743.9375 16.910156 748.128906 12.355469 748.738281 C 7.800781 749.351562 3.613281 746.152344 3.003906 741.59375 C 2.390625 737.035156 5.585938 732.847656 10.144531 732.234375 C 14.695312 731.625 18.886719 734.824219 19.5 739.382812 " fill-opacity="1" fill-rule="nonzero"/></g></g></g></g><g clip-path="url(#eb742fe588)"><g clip-path="url(#ee92cdee29)"><g clip-path="url(#cf668eb749)"><g clip-path="url(#48c05d168f)"><path fill="#6d6e71" d="M 1266.300781 601.054688 L 1270.824219 604.808594 C 1272.609375 606.292969 1275.257812 606.042969 1276.738281 604.257812 L 1350.734375 515.042969 C 1352.214844 513.257812 1351.972656 510.605469 1350.183594 509.121094 L 1345.664062 505.367188 C 1343.875 503.886719 1341.226562 504.132812 1339.742188 505.917969 L 1265.753906 595.132812 C 1264.269531 596.921875 1264.515625 599.570312 1266.300781 601.054688 " fill-opacity="1" fill-rule="nonzero"/></g></g></g></g><g clip-path="url(#4294a6d457)"><g clip-path="url(#0d7138321b)"><g clip-path="url(#ed9076755a)"><g clip-path="url(#37601524ef)"><path fill="#414042" d="M 1407.539062 559.65625 L 1538.003906 642.828125 C 1578.539062 668.667969 1587.234375 724.226562 1556.535156 761.238281 L 1556.535156 761.242188 C 1525.835938 798.253906 1469.65625 799.949219 1436.796875 764.851562 L 1331.039062 651.890625 C 1315.464844 638.078125 1298.648438 625.738281 1280.796875 615.03125 L 1362.066406 517.046875 C 1375.875 532.625 1391.097656 546.886719 1407.539062 559.65625 " fill-opacity="1" fill-rule="nonzero"/></g></g></g></g><g clip-path="url(#c08fc7a7ff)"><g clip-path="url(#5208f2b817)"><g clip-path="url(#cee415fd1d)"><g clip-path="url(#b8ea0d138d)"><path fill="#58595b" d="M 1268.839844 611.941406 L 1273.851562 616.109375 C 1275.832031 617.75 1278.769531 617.476562 1280.414062 615.496094 L 1362.449219 516.578125 C 1364.09375 514.597656 1363.820312 511.660156 1361.839844 510.015625 L 1356.824219 505.851562 C 1354.84375 504.207031 1351.910156 504.480469 1350.265625 506.460938 L 1268.226562 605.378906 C 1266.582031 607.359375 1266.859375 610.300781 1268.839844 611.941406 " fill-opacity="1" fill-rule="nonzero"/></g></g></g></g><g clip-path="url(#dc186bc7ee)"><g clip-path="url(#8e8660c530)"><g clip-path="url(#0f56b44598)"><g clip-path="url(#3c5973d62e)"><path fill="#6d6e71" d="M 1420.261719 754.492188 C 1422.398438 756.269531 1425.570312 755.976562 1427.34375 753.835938 L 1525.4375 635.5625 C 1527.210938 633.421875 1526.917969 630.25 1524.78125 628.472656 C 1522.640625 626.699219 1519.472656 626.996094 1517.695312 629.136719 L 1419.601562 747.40625 C 1417.832031 749.546875 1418.125 752.722656 1420.261719 754.492188 " fill-opacity="1" fill-rule="nonzero"/></g></g></g></g><g clip-path="url(#0efc675498)"><g clip-path="url(#400aa1457f)"><g clip-path="url(#3cae672156)"><g clip-path="url(#1e1d4b3b80)"><path fill="#cf7f55" d="M 1409.488281 829.582031 L 1413.222656 830.21875 L 1443.898438 650.515625 L 1440.164062 649.875 L 1409.488281 829.582031 " fill-opacity="1" fill-rule="nonzero"/></g></g></g></g><g clip-path="url(#950f3809e1)"><g clip-path="url(#236d8b543e)"><g clip-path="url(#31582405ff)"><g clip-path="url(#2539ff3e99)"><path fill="#cf7f55" d="M 1376.558594 816.183594 L 1379.761719 818.203125 L 1476.828125 663.910156 L 1473.625 661.890625 L 1376.558594 816.183594 " fill-opacity="1" fill-rule="nonzero"/></g></g></g></g><g clip-path="url(#016da0cdfe)"><g clip-path="url(#f6946383b9)"><g clip-path="url(#d746a7789f)"><g clip-path="url(#7036ecfd84)"><path fill="#cf7f55" d="M 1351.257812 791.199219 L 1353.449219 794.289062 L 1502.128906 688.898438 L 1499.9375 685.804688 L 1351.257812 791.199219 " fill-opacity="1" fill-rule="nonzero"/></g></g></g></g><g clip-path="url(#4882733650)"><g clip-path="url(#76ce2dae81)"><g clip-path="url(#66249b5bc0)"><g clip-path="url(#e6ee979077)"><path fill="#cf7f55" d="M 1337.445312 758.421875 L 1338.28125 762.121094 L 1515.945312 721.671875 L 1515.105469 717.976562 L 1337.445312 758.421875 " fill-opacity="1" fill-rule="nonzero"/></g></g></g></g><g clip-path="url(#cc1b7ce6e6)"><g clip-path="url(#05de02fd90)"><g clip-path="url(#fdae10fbf2)"><g clip-path="url(#173bf6487f)"><path fill="#cf7f55" d="M 1337.214844 722.851562 L 1336.578125 726.585938 L 1516.171875 757.242188 L 1516.808594 753.507812 L 1337.214844 722.851562 " fill-opacity="1" fill-rule="nonzero"/></g></g></g></g><g clip-path="url(#4372faf490)"><g clip-path="url(#867c9d35d3)"><g clip-path="url(#e046577d8e)"><g clip-path="url(#9a5f3d05e5)"><path fill="#cf7f55" d="M 1350.609375 689.898438 L 1348.59375 693.105469 L 1502.777344 790.199219 L 1504.796875 786.988281 L 1350.609375 689.898438 " fill-opacity="1" fill-rule="nonzero"/></g></g></g></g><g clip-path="url(#c6b0a35a8e)"><g clip-path="url(#315a102a21)"><g clip-path="url(#864562983b)"><g clip-path="url(#d15c1f5d6f)"><path fill="#cf7f55" d="M 1375.589844 664.578125 L 1372.496094 666.769531 L 1477.796875 815.515625 L 1480.890625 813.324219 L 1375.589844 664.578125 " fill-opacity="1" fill-rule="nonzero"/></g></g></g></g><g clip-path="url(#d32403a1cd)"><g clip-path="url(#90ce5e0dbd)"><g clip-path="url(#35a35c9bff)"><g clip-path="url(#1ff5b55f52)"><path fill="#cf7f55" d="M 1408.34375 650.75 L 1404.652344 651.589844 L 1445.042969 829.347656 L 1448.734375 828.503906 L 1408.34375 650.75 " fill-opacity="1" fill-rule="nonzero"/></g></g></g></g><g clip-path="url(#cc5851b01e)"><g clip-path="url(#dacc71c854)"><g clip-path="url(#1ffb882fdd)"><g clip-path="url(#044119b369)"><path fill="#e48c5d" d="M 1410.132812 837.066406 C 1463.683594 846.207031 1514.507812 810.179688 1523.652344 756.597656 C 1532.796875 703.015625 1496.804688 652.167969 1443.253906 643.027344 C 1389.707031 633.890625 1338.878906 669.914062 1329.734375 723.5 C 1320.585938 777.078125 1356.585938 827.925781 1410.132812 837.066406 Z M 1444.132812 637.882812 C 1500.519531 647.507812 1538.425781 701.054688 1528.792969 757.476562 C 1519.160156 813.898438 1465.644531 851.835938 1409.253906 842.210938 C 1352.867188 832.585938 1314.960938 779.042969 1324.59375 722.621094 C 1334.222656 666.199219 1387.742188 628.257812 1444.132812 637.882812 " fill-opacity="1" fill-rule="nonzero"/></g></g></g></g><g clip-path="url(#61cf2377da)"><g clip-path="url(#4f9249ae47)"><g clip-path="url(#6060ec3a14)"><g clip-path="url(#f45a96345f)"><path fill="#b36e49" d="M 1413.269531 818.691406 C 1456.675781 826.101562 1497.875 796.894531 1505.289062 753.464844 C 1512.703125 710.027344 1483.523438 668.8125 1440.117188 661.40625 C 1396.710938 653.996094 1355.511719 683.195312 1348.097656 726.632812 C 1340.683594 770.0625 1369.863281 811.28125 1413.269531 818.691406 Z M 1443.253906 643.027344 C 1496.804688 652.167969 1532.796875 703.015625 1523.652344 756.597656 C 1514.507812 810.179688 1463.683594 846.207031 1410.132812 837.066406 C 1356.585938 827.925781 1320.585938 777.078125 1329.734375 723.5 C 1338.878906 669.914062 1389.707031 633.890625 1443.253906 643.027344 " fill-opacity="1" fill-rule="nonzero"/></g></g></g></g><g clip-path="url(#e76b3380bf)"><g clip-path="url(#110c28a0bb)"><g clip-path="url(#84fa650d25)"><g clip-path="url(#5f28070941)"><path fill="#b36e49" d="M 1411.144531 737.394531 C 1409.679688 745.984375 1415.449219 754.136719 1424.039062 755.605469 C 1432.625 757.070312 1440.773438 751.292969 1442.242188 742.703125 C 1443.707031 734.109375 1437.9375 725.957031 1429.347656 724.492188 C 1420.761719 723.023438 1412.613281 728.800781 1411.144531 737.394531 " fill-opacity="1" fill-rule="nonzero"/></g></g></g></g><g clip-path="url(#cede99e003)"><g clip-path="url(#bf9b482478)"><g clip-path="url(#606821aeb4)"><g clip-path="url(#dede5186a2)"><path fill="#8d573a" d="M 1418.488281 738.648438 C 1417.714844 743.179688 1420.765625 747.480469 1425.292969 748.253906 C 1429.824219 749.027344 1434.121094 745.980469 1434.894531 741.449219 C 1435.671875 736.914062 1432.625 732.613281 1428.09375 731.839844 C 1423.566406 731.066406 1419.261719 734.113281 1418.488281 738.648438 " fill-opacity="1" fill-rule="nonzero"/></g></g></g></g></svg>